<svg width="81" height="20" viewBox="0 0 81 20" fill="none" xmlns="http://www.w3.org/2000/svg">
<path d="M21.1719 11.9661C21.1719 9.53662 22.0859 7.40586 23.9001 5.61563V4.83901H21.7096V0H18.0295V4.82904H16.2373V8.01522H18.0295V19.3341H21.7036L22.2811 16.361C21.551 15.0113 21.1697 13.5006 21.1719 11.9661Z" fill="#2BA6FF"/>
<path d="M31.212 4.3477C32.3438 4.32242 33.468 4.53782 34.5102 4.97965C35.5525 5.42147 36.489 6.07964 37.2578 6.91057C37.9261 7.59077 38.4527 8.39699 38.8068 9.28239C39.161 10.1678 39.3357 11.1147 39.3208 12.0682C39.3208 14.4578 38.3915 16.408 36.5329 17.9188C35.0163 19.1705 33.1045 19.843 31.1383 19.8166C29.8386 19.815 28.558 19.5037 27.4025 18.9085C26.1417 18.2953 25.0678 17.3562 24.292 16.1883C23.4597 14.9344 23.0227 13.4596 23.0375 11.9547C23.0375 9.77215 23.9435 7.90161 25.7557 6.34304C27.2519 5.04733 29.0706 4.38221 31.212 4.3477ZM31.1961 7.53387C29.8844 7.53387 28.756 8.0576 27.8108 9.10505C27.084 9.90054 26.6911 10.9451 26.7135 12.0224C26.7135 13.5544 27.2665 14.7585 28.3723 15.6347C29.1679 16.287 30.1673 16.6394 31.1961 16.6304C31.8325 16.647 32.4645 16.5211 33.046 16.262C33.6185 16.0082 34.1248 15.6259 34.5256 15.1448C35.2617 14.3138 35.6615 13.2381 35.6468 12.1279C35.6655 11.4574 35.5292 10.7916 35.2485 10.1824C34.959 9.56488 34.5343 9.0204 34.0059 8.5893C33.2246 7.91471 32.2282 7.54114 31.1961 7.53586V7.53387Z" fill="#2BA6FF"/>
<path d="M52.4775 19.3345V15.8496H56.1496V19.3345H52.4775Z" fill="#173559"/>
<path d="M73.9644 4.82712V19.3322H70.603V17.54C70.2332 17.9066 69.8222 18.2293 69.3783 18.5018C68.1792 19.3303 66.7607 19.7834 65.3034 19.8036C63.846 19.8239 62.4155 19.4102 61.1939 18.6153C59.9505 17.8231 58.9899 16.6576 58.4498 15.2858C58.0268 14.2423 57.813 13.1259 57.8205 12C57.8205 9.88253 58.5321 8.0903 59.9552 6.62333C60.6524 5.8784 61.5012 5.29169 62.4444 4.90279C63.4011 4.50528 64.4295 4.30938 65.4653 4.3273C66.8844 4.3339 68.2667 4.77981 69.4222 5.60375C69.861 5.89606 70.2582 6.2464 70.603 6.64523V4.8092L73.9644 4.82712ZM66.0169 7.53338C65.3837 7.51527 64.754 7.63414 64.1709 7.88187C63.5974 8.12618 63.0858 8.49564 62.6734 8.96319C62.2961 9.39854 62.0042 9.90118 61.8132 10.4447C61.606 10.9894 61.4974 11.5666 61.4926 12.1494C61.477 13.2392 61.8682 14.2957 62.5898 15.1125C63.0078 15.6075 63.5328 16.0011 64.1251 16.2635C64.7281 16.529 65.3822 16.6582 66.0408 16.6419C66.6549 16.6592 67.2656 16.5466 67.8331 16.3113C68.3934 16.0797 68.8964 15.7283 69.3067 15.2818C70.1076 14.412 70.5364 13.2635 70.5015 12.0816C70.5015 10.7541 70.1032 9.68604 69.3067 8.87755C68.88 8.44778 68.3705 8.10905 67.8092 7.88187C67.2404 7.64931 66.6314 7.5309 66.0169 7.53338Z" fill="#173559"/>
<path d="M77.3281 3.18617V0H81.0002V3.18617H77.3281ZM77.3281 19.3361V4.82904H81.0002V19.3341L77.3281 19.3361Z" fill="#173559"/>
<path d="M4.73926 15.7167C5.33486 16.2568 6.03831 16.6645 6.80312 16.9127C7.56793 17.1609 8.37671 17.2439 9.176 17.1564C10.5029 17.0489 11.7399 16.4435 12.639 15.4618C13.4816 14.5753 13.9625 13.4058 13.9872 12.183C14.0119 10.9601 13.5786 9.77224 12.7724 8.85246C12.2923 8.2862 11.696 7.82981 11.024 7.51426C10.342 7.19077 9.6 7.01308 8.84544 6.99252C8.10105 6.95584 7.35672 7.06614 6.65495 7.31711C5.95949 7.56316 5.32128 7.94798 4.77908 8.4482C5.36654 7.3888 7.53911 5.95105 10.2135 6.16612C12.9775 6.39114 15.4109 8.55575 15.8032 11.1983C16.0146 12.5589 15.7252 13.9499 14.9888 15.1133C14.2302 16.3058 13.0871 17.2037 11.7488 17.6582C9.01072 18.6081 6.10334 17.5726 4.73926 15.7167Z" fill="#173559"/>
<path d="M10.259 18.3891C9.04211 18.4853 7.82103 18.2651 6.71439 17.7499C5.6283 17.2466 4.69816 16.4595 4.02207 15.4717C3.36088 14.5086 2.98911 13.3764 2.95065 12.2087C2.91218 11.0411 3.20864 9.8869 3.80501 8.88233C4.41503 7.85666 5.29182 7.01565 6.342 6.44889C7.41387 5.87106 8.61669 5.57957 9.83417 5.6026C11.0516 5.62562 12.2426 5.96238 13.2918 6.58032C14.3173 7.18552 15.1581 8.0593 15.7233 9.10736C14.964 7.39842 13.6234 6.01405 11.9397 5.20031C10.2219 4.35822 8.27152 4.11564 6.39975 4.5113C4.54861 4.89178 2.88527 5.89893 1.69019 7.36293C0.529708 8.78594 -0.0657995 10.5866 0.01745 12.421C0.113481 14.2587 0.877608 15.998 2.16613 17.3117C3.49516 18.6654 5.24663 19.5246 7.13058 19.7472C9.02702 19.9818 10.9473 19.5723 12.5829 18.5842C14.1785 17.6273 15.3792 16.1313 15.9682 14.3665C15.4898 15.4836 14.7091 16.445 13.714 17.1425C12.693 17.8564 11.5007 18.2866 10.259 18.3891Z" fill="#2BA6FF"/>
<path d="M43.7435 16.1469L50.4803 7.98236V4.83203H37.656C38.0007 5.11023 38.3279 5.40951 38.6357 5.72814C39.2863 6.40313 39.8302 7.17334 40.2487 8.01224H46.0595L40.9337 14.2293C40.473 16.2248 39.3395 18.001 37.7237 19.2594C37.6898 19.2873 37.654 19.3092 37.6201 19.3371H50.9622V16.1509L43.7435 16.1469Z" fill="#2BA6FF"/>
</svg>
